# xmcd
#
# Track frame offsets: 
#        150
#        16965
#        33377
#        57944
#        79100
#        100852
#        129026
#        149168
#        175315
#        202456
#        231593
#
# Disc length: 3330 seconds
#
# Revision: 3
# Processed by: cddbd v1.5.2PL0 Copyright (c) Steve Scherf et al.
# Submitted via: ExactAudioCopyFreeDBPlugin 1.0
#
DISCID=9e0d000b
DTITLE=Camille Huyen - Cung Tien Art song
DYEAR=2008
DGENRE=Folk
TTITLE0=Thuo lam tho yeu em (Time writing love verses to you)
TTITLE1=Doi bo (Both banks of the river)
TTITLE2=Mat biec (Blue eyes)
TTITLE3=Vang vang troi vao xuan (Spring reverberations)
TTITLE4=Huong xua (Perfume from bygone days)
TTITLE5=Hoang Hac lau (Yellow Crane Pavilion)
TTITLE6=Le da xanh (Tears of blue stone)
TTITLE7=Khoi ho bay (Scudding lake's mist)
TTITLE8=Ke o (The one who stays)
TTITLE9=Nguyet cam (Moon lute)
TTITLE10=Vet chim bay (Trace of bird flight)
EXTD=
EXTT0=
EXTT1=
EXTT2=
EXTT3=
EXTT4=
EXTT5=
EXTT6=
EXTT7=
EXTT8=
EXTT9=
EXTT10=
PLAYORDER=
